<svg xmlns="http://www.w3.org/2000/svg" viewBox="0 0 1200 630" role="img" aria-label="WebGIS DTI+">
  <rect width="1200" height="630" fill="#070e1c"/>
  <rect x="72" y="72" width="1056" height="486" rx="28" fill="#0c1628" stroke="#1a2d4d" stroke-width="2"/>
  <g transform="translate(132 92)">
    <path d="M182 34 275 60 242 126 276 190 255 272 294 350 250 444 144 430 88 352 128 274 90 206 130 134 104 78Z" fill="#c8b91e" stroke="#fff" stroke-width="8" stroke-linejoin="round"/>
    <path d="M245 126 356 116 400 210 352 304 255 272 276 190Z" fill="#1ea06e" stroke="#fff" stroke-width="8" stroke-linejoin="round"/>
    <path d="M250 444 388 412 474 488 392 556 230 548 144 430Z" fill="#00d4aa" stroke="#fff" stroke-width="8" stroke-linejoin="round"/>
    <path d="M128 274 255 272 352 304 388 412 250 444Z" fill="#c8641e" stroke="#fff" stroke-width="8" stroke-linejoin="round"/>
  </g>
  <g transform="translate(620 170)">
    <text x="0" y="0" fill="#00d4aa" font-family="Arial, sans-serif" font-size="64" font-weight="800">WebGIS DTI+</text>
    <text x="0" y="76" fill="#e2eaff" font-family="Arial, sans-serif" font-size="36" font-weight="700">Phân hóa không gian phát triển số Việt Nam</text>
    <text x="0" y="138" fill="#6b80a8" font-family="Arial, sans-serif" font-size="28">Bản đồ choropleth tương tác theo vùng kinh tế</text>
    <text x="0" y="184" fill="#6b80a8" font-family="Arial, sans-serif" font-size="28">Giai đoạn 2020-2025</text>
    <rect x="0" y="236" width="98" height="24" rx="6" fill="#00d4aa"/>
    <rect x="122" y="236" width="98" height="24" rx="6" fill="#1ea06e"/>
    <rect x="244" y="236" width="98" height="24" rx="6" fill="#c8b91e"/>
    <rect x="366" y="236" width="98" height="24" rx="6" fill="#c8641e"/>
    <rect x="488" y="236" width="98" height="24" rx="6" fill="#8b2323"/>
  </g>
</svg>
